<?xml version="1.0" standalone="no"?>
<!DOCTYPE svg PUBLIC "-//W3C//DTD SVG 20010904//EN"
 "http://www.w3.org/TR/2001/REC-SVG-20010904/DTD/svg10.dtd">
<svg version="1.0" xmlns="http://www.w3.org/2000/svg"
 width="1350.000000pt" height="1350.000000pt" viewBox="0 0 1350.000000 1350.000000"
 preserveAspectRatio="xMidYMid meet">
<metadata>
Created by potrace 1.14, written by Peter Selinger 2001-2017
</metadata>
<g transform="translate(0.000000,1350.000000) scale(0.100000,-0.100000)"
fill="#000000" stroke="none">
<path d="M10695 12200 c-11 -4 -24 -6 -30 -4 -18 7 -144 -44 -200 -81 -50 -34
-1138 -1117 -4079 -4064 -538 -540 -980 -981 -983 -981 -2 0 -534 530 -1181
1178 -1108 1109 -1181 1180 -1245 1211 -160 76 -368 77 -507 1 -19 -10 -46
-24 -60 -30 -32 -15 -2019 -2000 -2044 -2043 -46 -79 -54 -95 -69 -142 -23
-71 -28 -100 -28 -182 0 -75 13 -146 37 -200 8 -17 14 -34 14 -37 0 -22 81
-127 155 -201 48 -49 83 -91 79 -97 -4 -6 -3 -8 4 -5 13 9 244 -222 235 -236
-3 -6 -1 -7 5 -3 14 9 314 -293 305 -307 -3 -5 -1 -7 4 -4 12 8 163 -137 163
-155 0 -6 2 -9 5 -6 8 8 75 -59 75 -73 0 -7 3 -10 6 -6 9 9 74 -65 67 -77 -3
-5 -1 -6 4 -3 12 7 403 -377 403 -395 0 -6 2 -9 5 -6 10 9 556 -543 549 -554
-4 -6 -2 -8 4 -5 13 9 174 -152 165 -166 -3 -5 -2 -7 3 -4 12 7 86 -58 77 -67
-4 -3 -2 -6 4 -6 13 0 473 -458 473 -471 0 -5 4 -9 9 -9 12 0 71 -59 71 -71 0
-5 4 -9 9 -9 17 0 71 -61 65 -72 -4 -6 -3 -8 2 -5 6 3 26 -10 45 -29 18 -19
47 -47 63 -62 75 -71 116 -115 116 -124 0 -6 2 -9 5 -6 10 9 145 -133 139
-145 -4 -7 -4 -9 1 -5 11 11 36 -12 28 -25 -3 -5 -1 -7 4 -4 13 8 85 -61 77
-74 -3 -5 -1 -8 4 -7 12 4 82 -59 82 -72 0 -6 4 -10 9 -10 12 0 71 -59 71 -71
0 -5 4 -9 10 -9 14 0 66 -60 62 -72 -1 -5 2 -7 7 -4 11 7 87 -71 83 -86 -1 -5
2 -7 7 -4 10 7 142 -120 133 -128 -3 -3 0 -6 6 -6 17 0 52 -42 45 -53 -3 -6
-1 -7 4 -4 12 8 56 -27 46 -37 -3 -3 -1 -6 5 -6 13 0 72 -58 72 -71 0 -5 4 -9
9 -9 14 0 156 -150 153 -161 -1 -6 2 -8 7 -5 13 9 82 -64 74 -78 -3 -6 -3 -8
2 -4 11 11 36 -12 28 -25 -3 -6 -1 -7 5 -3 11 7 93 -69 84 -79 -3 -3 0 -5 6
-5 14 0 62 -47 54 -54 -3 -3 -1 -6 5 -6 6 0 57 -46 114 -102 103 -102 165
-158 173 -158 3 0 27 -13 55 -29 27 -16 51 -27 54 -25 2 2 22 -2 45 -10 22 -8
43 -12 46 -9 3 4 6 2 6 -3 0 -14 173 -6 241 11 34 9 77 25 97 35 19 11 40 16
46 13 6 -3 8 -3 4 2 -7 7 27 39 41 40 3 0 234 229 513 508 304 304 513 505
520 501 7 -4 8 -3 4 4 -8 14 258 285 268 274 4 -4 6 -2 4 3 -4 14 467 486 476
477 4 -4 6 -2 4 3 -4 14 627 646 636 637 4 -4 6 -2 4 3 -4 14 553 571 567 567
5 -2 7 0 3 3 -8 9 623 641 635 637 5 -1 6 1 4 5 -6 11 379 394 388 385 4 -4 5
-2 3 3 -4 14 107 126 117 117 5 -4 5 -2 2 4 -7 12 28 46 38 36 4 -4 5 -2 3 3
-4 14 107 126 116 117 4 -4 6 -2 4 4 -4 14 67 85 76 76 4 -4 6 -2 4 3 -4 14
193 211 207 207 5 -2 7 0 3 4 -9 9 103 120 117 116 5 -2 7 0 3 3 -9 9 143 161
157 157 6 -2 7 0 3 4 -9 9 62 80 76 76 6 -2 8 0 4 4 -9 9 103 120 117 116 5
-2 7 0 3 3 -9 9 54 75 65 68 4 -2 6 0 5 5 -4 13 108 123 116 114 4 -4 6 -2 4
4 -4 14 67 85 76 76 4 -4 6 -2 4 4 -4 15 264 284 276 277 5 -3 6 -2 3 4 -7 12
107 126 117 116 4 -5 6 -3 4 2 -4 14 63 86 74 79 5 -3 7 -1 6 4 -4 14 285 301
296 295 5 -4 6 -2 3 4 -7 11 53 70 66 65 5 -1 6 1 3 6 -8 13 85 97 103 94 12
-2 13 -1 3 6 -9 6 -6 14 12 29 13 12 27 18 31 15 4 -4 5 -2 3 4 -4 13 132 150
145 146 5 -1 6 2 3 7 -3 5 0 14 8 20 8 7 16 8 18 4 3 -4 4 -3 2 3 -3 15 57 70
71 66 5 -2 7 -1 3 3 -3 4 3 18 15 31 16 18 23 21 30 12 6 -10 8 -9 4 3 -6 18
75 103 87 91 4 -4 6 0 4 8 -2 9 3 14 12 12 8 -2 12 -1 8 3 -3 4 3 18 15 31 15
18 23 21 29 12 7 -10 8 -9 6 3 -3 18 81 111 94 103 5 -3 7 -2 6 3 -4 12 54 73
64 67 5 -3 7 -2 6 3 -4 13 64 83 74 77 5 -3 7 0 6 8 -2 7 4 12 12 10 8 -2 12
-1 8 3 -3 4 3 18 15 31 16 18 23 21 30 12 6 -10 8 -9 4 3 -6 17 151 176 168
171 5 -2 7 0 3 4 -5 4 13 28 38 54 25 26 58 68 73 93 15 26 31 44 36 40 4 -5
5 -3 2 3 -4 7 2 38 14 70 54 157 23 361 -77 501 -29 42 -1811 1834 -1966 1978
-66 62 -130 100 -213 126 -63 21 -216 32 -250 19z"/>
<path d="M12276 8453 c-6 -14 -5 -15 5 -6 7 7 10 15 7 18 -3 3 -9 -2 -12 -12z"/>
<path d="M11906 8142 c-3 -5 1 -9 9 -9 8 0 12 4 9 9 -3 4 -7 8 -9 8 -2 0 -6
-4 -9 -8z"/>
<path d="M11825 7880 c-3 -6 1 -7 9 -4 18 7 21 14 7 14 -6 0 -13 -4 -16 -10z"/>
<path d="M11796 7818 c3 -5 10 -6 15 -3 13 9 11 12 -6 12 -8 0 -12 -4 -9 -9z"/>
<path d="M10633 6655 c0 -8 4 -12 9 -9 5 3 6 10 3 15 -9 13 -12 11 -12 -6z"/>
<path d="M635 6140 c3 -5 8 -10 11 -10 2 0 4 5 4 10 0 6 -5 10 -11 10 -5 0 -7
-4 -4 -10z"/>
<path d="M9876 5898 c3 -5 10 -6 15 -3 13 9 11 12 -6 12 -8 0 -12 -4 -9 -9z"/>
<path d="M9713 5865 c0 -8 4 -12 9 -9 5 3 6 10 3 15 -9 13 -12 11 -12 -6z"/>
<path d="M1050 5821 c0 -6 4 -13 10 -16 6 -3 7 1 4 9 -7 18 -14 21 -14 7z"/>
<path d="M9433 5675 c0 -8 4 -12 9 -9 5 3 6 10 3 15 -9 13 -12 11 -12 -6z"/>
<path d="M9455 5509 c-4 -6 -5 -12 -2 -15 2 -3 7 2 10 11 7 17 1 20 -8 4z"/>
<path d="M1373 5495 c0 -8 4 -12 9 -9 5 3 6 10 3 15 -9 13 -12 11 -12 -6z"/>
<path d="M9165 5420 c-3 -6 1 -7 9 -4 18 7 21 14 7 14 -6 0 -13 -4 -16 -10z"/>
<path d="M1716 5218 c3 -5 10 -6 15 -3 13 9 11 12 -6 12 -8 0 -12 -4 -9 -9z"/>
<path d="M8954 5196 c1 -8 5 -18 8 -22 4 -3 5 1 4 10 -1 8 -5 18 -8 22 -4 3
-5 -1 -4 -10z"/>
<path d="M8793 5035 c0 -8 4 -12 9 -9 5 3 6 10 3 15 -9 13 -12 11 -12 -6z"/>
<path d="M8815 4869 c-4 -6 -5 -12 -2 -15 2 -3 7 2 10 11 7 17 1 20 -8 4z"/>
<path d="M8525 4780 c-3 -6 1 -7 9 -4 18 7 21 14 7 14 -6 0 -13 -4 -16 -10z"/>
<path d="M2225 4620 c-3 -6 1 -7 9 -4 18 7 21 14 7 14 -6 0 -13 -4 -16 -10z"/>
<path d="M2556 4387 c3 -10 9 -15 12 -12 3 3 0 11 -7 18 -10 9 -11 8 -5 -6z"/>
<path d="M8146 4382 c-3 -5 1 -9 9 -9 8 0 12 4 9 9 -3 4 -7 8 -9 8 -2 0 -6 -4
-9 -8z"/>
<path d="M2595 4351 c-3 -5 -2 -12 3 -15 5 -3 9 1 9 9 0 17 -3 19 -12 6z"/>
<path d="M8116 4138 c3 -5 10 -6 15 -3 13 9 11 12 -6 12 -8 0 -12 -4 -9 -9z"/>
<path d="M2866 4002 c-3 -5 1 -9 9 -9 8 0 12 4 9 9 -3 4 -7 8 -9 8 -2 0 -6 -4
-9 -8z"/>
<path d="M2960 3906 c0 -2 8 -10 18 -17 15 -13 16 -12 3 4 -13 16 -21 21 -21
13z"/>
<path d="M3276 3573 c-6 -14 -5 -15 5 -6 7 7 10 15 7 18 -3 3 -9 -2 -12 -12z"/>
<path d="M3396 3538 c3 -5 10 -6 15 -3 13 9 11 12 -6 12 -8 0 -12 -4 -9 -9z"/>
<path d="M3610 3261 c0 -6 4 -13 10 -16 6 -3 7 1 4 9 -7 18 -14 21 -14 7z"/>
<path d="M7026 3262 c-3 -5 1 -9 9 -9 8 0 12 4 9 9 -3 4 -7 8 -9 8 -2 0 -6 -4
-9 -8z"/>
<path d="M3933 2935 c0 -8 4 -12 9 -9 5 3 6 10 3 15 -9 13 -12 11 -12 -6z"/>
<path d="M4660 2306 c0 -2 8 -10 18 -17 15 -13 16 -12 3 4 -13 16 -21 21 -21
13z"/>
<path d="M4996 1938 c3 -5 10 -6 15 -3 13 9 11 12 -6 12 -8 0 -12 -4 -9 -9z"/>
<path d="M5395 1901 c-3 -5 -2 -12 3 -15 5 -3 9 1 9 9 0 17 -3 19 -12 6z"/>
<path d="M5666 1822 c-3 -5 1 -9 9 -9 8 0 12 4 9 9 -3 4 -7 8 -9 8 -2 0 -6 -4
-9 -8z"/>
<path d="M5625 1780 c-3 -6 1 -7 9 -4 18 7 21 14 7 14 -6 0 -13 -4 -16 -10z"/>
<path d="M5396 1702 c-3 -5 1 -9 9 -9 8 0 12 4 9 9 -3 4 -7 8 -9 8 -2 0 -6 -4
-9 -8z"/>
</g>
</svg>
